<?xml version="1.0" encoding="UTF-8" standalone="no"?>
<svg width="306px" height="350px" viewBox="0 0 306 350" version="1.1" xmlns="http://www.w3.org/2000/svg" xmlns:xlink="http://www.w3.org/1999/xlink">
    <!-- Generator: Sketch 40 (33762) - http://www.bohemiancoding.com/sketch -->
    <title>BRC-leadCustomers</title>
    <desc>Created with Sketch.</desc>
    <defs>
        <rect id="path-1" x="0" y="0" width="280" height="324"></rect>
        <filter x="-50%" y="-50%" width="200%" height="200%" filterUnits="objectBoundingBox" id="filter-2">
            <feOffset dx="0" dy="2" in="SourceAlpha" result="shadowOffsetOuter1"></feOffset>
            <feGaussianBlur stdDeviation="6.5" in="shadowOffsetOuter1" result="shadowBlurOuter1"></feGaussianBlur>
            <feColorMatrix values="0 0 0 0 0   0 0 0 0 0   0 0 0 0 0  0 0 0 0.2 0" type="matrix" in="shadowBlurOuter1"></feColorMatrix>
        </filter>
    </defs>
    <g id="Build" stroke="none" stroke-width="1" fill="none" fill-rule="evenodd">
        <g id="BRC-leadCustomers" transform="translate(13.000000, 11.000000)">
            <g id="onboarding-animation-bckgrnd">
                <use fill="black" fill-opacity="1" filter="url(#filter-2)" xlink:href="#path-1"></use>
                <use fill="#FFFFFF" fill-rule="evenodd" xlink:href="#path-1"></use>
            </g>
            <text id="The-last-two-years-o" font-family="Helvetica" font-size="10" font-weight="normal" letter-spacing="-0.192307696" fill="#4A4A4A">
                <tspan x="19" y="231">The last two years of transactions on yout </tspan>
                <tspan x="19" y="243">accounts are available online and can be </tspan>
                <tspan x="19" y="255">downloaded, all from one place</tspan>
            </text>
            <text id="See-your-statements" font-family="Helvetica" font-size="10" font-weight="normal" letter-spacing="-0.192307696" fill="#4A4A4A">
                <tspan x="47" y="102">See your statements (takes 1 min)</tspan>
            </text>
            <text id="Move-money-between-a" opacity="0.4" font-family="Helvetica" font-size="10" font-weight="normal" letter-spacing="-0.192307696" fill="#4A4A4A">
                <tspan x="47" y="132">Move money between accounts (takes 2 min)</tspan>
            </text>
            <text id="Pay-another-person-(" opacity="0.4" font-family="Helvetica" font-size="10" font-weight="normal" letter-spacing="-0.192307696" fill="#4A4A4A">
                <tspan x="47" y="163">Pay another person (takes 2 min)</tspan>
            </text>
            <g id="icon-confirmation-tick-blue" transform="translate(19.000000, 91.000000)" fill="#9B9B9B">
                <path d="M8,16 C12.418278,16 16,12.418278 16,8 C16,3.581722 12.418278,0 8,0 C3.581722,0 0,3.581722 0,8 C0,12.418278 3.581722,16 8,16 Z M8,14.3333333 C11.4978034,14.3333333 14.3333333,11.4978034 14.3333333,8 C14.3333333,4.50219658 11.4978034,1.66666667 8,1.66666667 C4.50219658,1.66666667 1.66666667,4.50219658 1.66666667,8 C1.66666667,11.4978034 4.50219658,14.3333333 8,14.3333333 Z" id="Combined-Shape"></path>
            </g>
            <g id="icon-confirmation-tick-blue" transform="translate(19.000000, 121.000000)" fill="#9B9B9B">
                <path d="M8,16 C12.418278,16 16,12.418278 16,8 C16,3.581722 12.418278,0 8,0 C3.581722,0 0,3.581722 0,8 C0,12.418278 3.581722,16 8,16 Z M8,14.3333333 C11.4978034,14.3333333 14.3333333,11.4978034 14.3333333,8 C14.3333333,4.50219658 11.4978034,1.66666667 8,1.66666667 C4.50219658,1.66666667 1.66666667,4.50219658 1.66666667,8 C1.66666667,11.4978034 4.50219658,14.3333333 8,14.3333333 Z" id="Combined-Shape"></path>
            </g>
            <g id="icon-confirmation-tick-blue" transform="translate(19.000000, 151.000000)" fill="#9B9B9B">
                <path d="M8,16 C12.418278,16 16,12.418278 16,8 C16,3.581722 12.418278,0 8,0 C3.581722,0 0,3.581722 0,8 C0,12.418278 3.581722,16 8,16 Z M8,14.3333333 C11.4978034,14.3333333 14.3333333,11.4978034 14.3333333,8 C14.3333333,4.50219658 11.4978034,1.66666667 8,1.66666667 C4.50219658,1.66666667 1.66666667,4.50219658 1.66666667,8 C1.66666667,11.4978034 4.50219658,14.3333333 8,14.3333333 Z" id="Combined-Shape"></path>
            </g>
            <text id="Get-help-(takes-2-mi" opacity="0.4" font-family="Helvetica" font-size="10" font-weight="normal" letter-spacing="-0.192307696" fill="#4A4A4A">
                <tspan x="47" y="194">Get help (takes 2 min)</tspan>
            </text>
            <g id="icon-confirmation-tick-blue" transform="translate(19.000000, 181.000000)" fill="#9B9B9B">
                <path d="M8,16 C12.418278,16 16,12.418278 16,8 C16,3.581722 12.418278,0 8,0 C3.581722,0 0,3.581722 0,8 C0,12.418278 3.581722,16 8,16 Z M8,14.3333333 C11.4978034,14.3333333 14.3333333,11.4978034 14.3333333,8 C14.3333333,4.50219658 11.4978034,1.66666667 8,1.66666667 C4.50219658,1.66666667 1.66666667,4.50219658 1.66666667,8 C1.66666667,11.4978034 4.50219658,14.3333333 8,14.3333333 Z" id="Combined-Shape"></path>
            </g>
            <text id="Set-security-passcod" opacity="0.4" font-family="Helvetica" font-size="10" font-weight="normal" letter-spacing="-0.192307696" fill="#4A4A4A">
                <tspan x="47" y="73">Set security  passcode (takes 1 min)</tspan>
            </text>
            <g id="icon-confirmation-tick-blue-copy-2" transform="translate(19.000000, 61.000000)" fill="#7ED321">
                <path d="M13.7116701,5.84148457 C13.9378144,6.48626807 14.0621856,7.17938148 14.0621856,7.90169075 C14.0621856,11.3309691 11.2920412,14.1110103 7.87496907,14.1110103 C4.45789691,14.1110103 1.68725773,11.3316289 1.68725773,7.90169075 C1.68725773,4.47323715 4.45707216,1.69352581 7.87496907,1.69352581 C9.23661856,1.69352581 10.4946804,2.13591756 11.5163711,2.88379385 L12.7208247,1.67521653 C11.3844124,0.626474259 9.70309278,-0.000164915898 7.87496907,3.25560822e-08 C3.5254433,3.25560822e-08 0,3.53698972 0,7.90169075 C0,12.2665567 3.5254433,15.8040413 7.87496907,15.8040413 C12.224,15.8040413 15.750433,12.2665567 15.7497732,7.90169075 C15.7499381,6.70103096 15.4818969,5.56354642 15.0043711,4.54432993 L13.7116701,5.84148457 L13.7116701,5.84148457 Z M6.04206186,7.38754642 C6.04123711,7.38754642 6.04123711,7.38705158 6.04057732,7.38639179 C5.67323711,7.00717529 5.07678351,7.00750519 4.70894845,7.38639179 C4.34061856,7.76626807 4.34061856,8.38152581 4.70894845,8.76008251 C4.7094433,8.7604124 4.7097732,8.7604124 4.7097732,8.76123715 L6.61839175,10.7298969 C6.75150515,10.8668042 6.93129897,10.9430103 7.11802062,10.9430103 C7.30589691,10.9430103 7.48536082,10.8668042 7.61814433,10.7298969 L15.753567,2.42837117 L14.5415258,1.21204127 L7.26878351,8.51035055 L6.04206186,7.38754642 L6.04206186,7.38754642 Z" id="icon-confirmation-tick"></path>
            </g>
            <text id="Welcome-Jessie" font-family="Helvetica-Bold, Helvetica" font-size="14" font-weight="bold" letter-spacing="-0.269230783" fill="#4A4A4A">
                <tspan x="19" y="34">Welcome Jessie</tspan>
            </text>
            <g id="Group-3" transform="translate(216.000000, 221.000000)">
                <rect id="Rectangle-2" fill="#005378" x="0" y="14" width="46" height="22"></rect>
                <path d="M8,2.00973606 C8,1.45207423 8.44746922,1 9.00069463,1 L32,1 L39,9 L39,35.0070346 C39,35.5554342 38.5617743,36 38.0036849,36 L8.99631511,36 C8.44606547,36 8,35.5574707 8,34.9902639 L8,2.00973606 Z" id="Rectangle-4" fill="#EFEFEF"></path>
                <rect id="Rectangle-5" fill="#6DCEF4" x="12" y="8" width="16" height="1"></rect>
                <rect id="Rectangle-5-Copy" fill="#6DCEF4" x="12" y="13" width="23" height="1"></rect>
                <rect id="Rectangle-5-Copy-2" fill="#6DCEF4" x="12" y="18" width="23" height="1"></rect>
                <polygon id="Rectangle-2" fill="#3DBBEC" points="0 14 23 23.2037563 46 14 46 36 0 36"></polygon>
                <path d="M0,36 L21.4191169,19.2372129 C22.2922145,18.5539191 23.7009027,18.5485326 24.5808831,19.2372129 L46,36 L0,36 Z" id="Star" fill="#6DCEF4"></path>
                <path d="M30.2306155,4.64805607 L40.7957982,5.32917396 L30.2306155,4.64805607 Z" id="Star-Copy" fill="#6DCEF4" transform="translate(35.513207, 4.988615) rotate(-135.000000) translate(-35.513207, -4.988615) "></path>
                <path d="M31.9959717,0.978393555 L31.9377058,7.99588417 C31.9331244,8.54767048 32.3713715,8.99498167 32.9266987,8.99498167 L38.9946288,8.99498167 L31.9959717,0.978393555 Z" id="Path-5" fill="#6DCEF4"></path>
            </g>
            <g id="Group-5" transform="translate(50.000000, 283.000000)">
                <g id="Group-8">
                    <text id="See-all-your-stateme" font-family="Helvetica-Bold, Helvetica" font-size="14" font-weight="bold" letter-spacing="-0.269230783" fill="#005378">
                        <tspan x="9.39644697" y="14">See all your statements</tspan>
                    </text>
                    <polyline id="Path-2" stroke="#005378" stroke-width="2" points="166 5 172 10.5 166 16"></polyline>
                </g>
            </g>
        </g>
    </g>
</svg>