<?xml version="1.0" encoding="UTF-8"?>
<svg width="430px" height="1097px" viewBox="0 0 430 1097" version="1.1" xmlns="http://www.w3.org/2000/svg" xmlns:xlink="http://www.w3.org/1999/xlink">
    <!-- Generator: Sketch 51.2 (57519) - http://www.bohemiancoding.com/sketch -->
    <title>EXP-icons_and_color</title>
    <desc>Created with Sketch.</desc>
    <defs></defs>
    <g id="02-Digiwise" stroke="none" stroke-width="1" fill="none" fill-rule="evenodd">
        <g id="Group-28">
            <g id="Group-16" transform="translate(39.000000, 19.000000)" stroke="#000000" stroke-linecap="round" stroke-linejoin="round" stroke-width="1.8">
                <g id="alert-triangle-copy" transform="translate(283.000000, 221.000000)">
                    <path d="M7.90617143,0.861542105 L0.242838095,13.5131211 C-0.256590476,14.3693842 0.0392666667,15.4636474 0.90512381,15.9584368 C1.17474286,16.1114368 1.47874286,16.1937526 1.78998095,16.1973316 L17.1166476,16.1973316 C18.1155048,16.1865947 18.9171238,15.3768579 18.9062667,14.3890684 C18.9026476,14.0812789 18.8194095,13.7797526 18.6637905,13.5131211 L11.0004571,0.861542105 C10.4820286,0.0169105263 9.36917143,-0.2533 8.51507619,0.260278947 C8.2653619,0.408805263 8.05726667,0.615489474 7.90617143,0.861542105 Z" id="Stroke-1"></path>
                    <path d="M9.45322381,5.46057895 L9.45322381,9.03952632" id="Stroke-3"></path>
                    <path d="M9.45322381,12.5834895 L9.45322381,12.5978053" id="Stroke-5"></path>
                </g>
                <g id="arrow-down-circle-copy" transform="translate(1.000000, 221.000000)">
                    <circle id="Oval" cx="9" cy="9" r="9"></circle>
                    <polyline id="Shape" points="5.4 9 9 12.6 12.6 9"></polyline>
                    <path d="M9,5.4 L9,12.6" id="Shape"></path>
                </g>
                <g id="arrow-down-right-copy" transform="translate(251.000000, 120.000000)">
                    <path d="M0,0 L9,9" id="Shape"></path>
                    <polyline id="Shape" points="9 0 9 9 0 9"></polyline>
                </g>
                <g id="arrow-down-copy" transform="translate(103.000000, 117.000000)">
                    <path d="M6.5,0 L6.5,13" id="Shape"></path>
                    <polyline id="Shape" points="13 6.5 6.5 13 0 6.5"></polyline>
                </g>
                <g id="arrow-left-circle-copy" transform="translate(48.000000, 221.000000)">
                    <circle id="Oval" cx="9" cy="9" r="9"></circle>
                    <polyline id="Shape" points="9 5.4 5.4 9 9 12.6"></polyline>
                    <path d="M12.6,9 L5.4,9" id="Shape"></path>
                </g>
                <g id="arrow-left-copy" transform="translate(3.000000, 119.000000)">
                    <path d="M13,6.5 L0,6.5" id="Shape"></path>
                    <polyline id="Shape" points="6.5 13 0 6.5 6.5 0"></polyline>
                </g>
                <g id="arrow-right-circle-copy" transform="translate(94.000000, 221.000000)">
                    <circle id="Oval" cx="9" cy="9" r="9"></circle>
                    <polyline id="Shape" points="9 12.6 12.6 9 9 5.4"></polyline>
                    <path d="M5.4,9 L12.6,9" id="Shape"></path>
                </g>
                <g id="arrow-right-copy" transform="translate(53.000000, 119.000000)">
                    <path d="M0,6.5 L13,6.5" id="Shape"></path>
                    <polyline id="Shape" points="6.5 0 13 6.5 6.5 13"></polyline>
                </g>
                <g id="arrow-up-circle-copy" transform="translate(141.000000, 221.000000)">
                    <circle id="Oval" cx="9" cy="9" r="9"></circle>
                    <polyline id="Shape" points="12.6 9 9 5.4 5.4 9"></polyline>
                    <path d="M9,12.6 L9,5.4" id="Shape"></path>
                </g>
                <g id="arrow-up-left-copy" transform="translate(297.000000, 120.000000)">
                    <path d="M9,9 L0,0" id="Shape"></path>
                    <polyline id="Shape" points="0 9 0 0 9 0"></polyline>
                </g>
                <g id="arrow-up-copy" transform="translate(153.000000, 119.000000)">
                    <path d="M6.5,13 L6.5,0" id="Shape"></path>
                    <polyline id="Shape" points="0 6.5 6.5 0 13 6.5"></polyline>
                </g>
                <g id="award-copy" transform="translate(292.000000, 0.000000)">
                    <ellipse id="Oval" cx="6.5" cy="6.36363636" rx="6.5" ry="6.36363636"></ellipse>
                    <polyline id="Shape" points="2.98071429 11.7181818 1.85714286 20 6.5 17.2727273 11.1428571 20 10.0192857 11.7090909"></polyline>
                </g>
                <g id="check-copy" transform="translate(97.000000, 177.000000)">
                    <polyline id="Shape" points="14 0 4.375 10 0 5.45454545"></polyline>
                </g>
                <g id="filter-copy" transform="translate(49.000000, 174.000000)">
                    <polygon id="Shape" points="18 0 0 0 7.2 8.40888889 7.2 14.2222222 10.8 16 10.8 8.40888889"></polygon>
                </g>
                <g id="home-copy" transform="translate(1.000000, 2.000000)">
                    <path d="M0,6.3 L8,0 L16,6.3 L16,16.2 C16,17.1941125 15.2040618,18 14.2222222,18 L1.77777778,18 C0.795938223,18 0,17.1941125 0,16.2 L0,6.3 Z" id="Shape"></path>
                    <polyline id="Shape" points="5.33333333 18 5.33333333 9 10.6666667 9 10.6666667 18"></polyline>
                </g>
                <g id="inbox-copy" transform="translate(1.000000, 176.000000)">
                    <polyline id="Shape" points="18 7 12.6 7 10.8 9.625 7.2 9.625 5.4 7 0 7"></polyline>
                    <path d="M3.105,0.97125 L0,7 L0,12.25 C0,13.2164983 0.80588745,14 1.8,14 L16.2,14 C17.1941125,14 18,13.2164983 18,12.25 L18,7 L14.895,0.97125 C14.591043,0.376549531 13.9670496,0.000352384631 13.284,0 L4.716,0 C4.03295042,0.000352384631 3.40895701,0.376549531 3.105,0.97125 Z" id="Shape"></path>
                </g>
                <g id="lock-copy" transform="translate(243.000000, 60.000000)">
                    <rect id="Rectangle-path" x="0" y="8.1" width="16" height="9.9" rx="1.8"></rect>
                    <path d="M3.55555556,8.1 L3.55555556,4.5 C3.55555556,2.01471863 5.54540111,1.28785871e-15 8,8.8817842e-16 C10.4545989,8.8817842e-17 12.4444444,2.01471863 12.4444444,4.5 L12.4444444,8.1" id="Shape"></path>
                </g>
                <g id="mail-copy" transform="translate(197.000000, 3.000000)">
                    <path d="M1.8,0 L16.2,0 C17.19,0 18,0.7875 18,1.75 L18,12.25 C18,13.2125 17.19,14 16.2,14 L1.8,14 C0.81,14 0,13.2125 0,12.25 L0,1.75 C0,0.7875 0.81,0 1.8,0 Z" id="Shape"></path>
                    <polyline id="Shape" points="18 1.75 9 7.875 0 1.75"></polyline>
                </g>
                <g id="message-circle-copy" transform="translate(287.000000, 60.000000)">
                    <path d="M16,7.55555556 C16.0030589,8.72877139 15.7289501,9.88611963 15.2,10.9333333 C13.9208526,13.4927358 11.3056956,15.1100039 8.44444444,15.1111111 C7.27122861,15.11417 6.11388037,14.8400612 5.06666667,14.3111111 L0,16 L1.68888889,10.9333333 C1.15993879,9.88611963 0.885829998,8.72877139 0.888888889,7.55555556 C0.889996052,4.69430444 2.50726419,2.07914744 5.06666667,0.8 C6.11388037,0.271049902 7.27122861,-0.00305889085 8.44444444,3.55272723e-15 L8.88888889,3.55272723e-15 C12.7251639,0.21164417 15.7883558,3.27483607 16,7.11111111 L16,7.55555556 Z" id="Shape"></path>
                </g>
                <g id="message-square-copy" transform="translate(336.000000, 5.000000)">
                    <path d="M16,10.6666667 C16,11.6485062 15.2040618,12.4444444 14.2222222,12.4444444 L3.55555556,12.4444444 L0,16 L0,1.77777778 C0,0.795938223 0.795938223,0 1.77777778,0 L14.2222222,0 C15.2040618,0 16,0.795938223 16,1.77777778 L16,10.6666667 Z" id="Shape"></path>
                </g>
                <g id="paperclip-copy" transform="translate(48.000000, 2.000000)">
                    <path d="M17.496,9.09285714 L9.225,17.407619 C7.11499611,19.528787 3.69400389,19.528787 1.584,17.407619 C-0.526003887,15.2864511 -0.526003887,11.8473584 1.584,9.72619048 L9.855,1.41142857 C11.2616693,-0.0026833449 13.5423307,-0.00268332782 14.949,1.41142861 C16.3556692,2.82554055 16.3556692,5.11826899 14.949,6.53238095 L6.669,14.8471429 C5.96566537,15.5541988 4.82533463,15.5541988 4.122,14.8471429 C3.41866537,14.1400869 3.41866537,12.9937226 4.122,12.2866667 L11.763,4.61428571" id="Shape"></path>
                </g>
                <g id="plus-circle-copy" transform="translate(98.000000, 2.000000)">
                    <circle id="Oval" cx="9" cy="9" r="9"></circle>
                    <path d="M9,5.4 L9,12.6" id="Shape"></path>
                    <path d="M5.4,9 L12.6,9" id="Shape"></path>
                </g>
                <g id="refresh-ccw-copy" transform="translate(235.000000, 222.000000)">
                    <polyline id="Shape" points="0 0.888888889 0 6.22222222 5.45454545 6.22222222"></polyline>
                    <polyline id="Shape" points="20 15.1111111 20 9.77777778 14.5454545 9.77777778"></polyline>
                    <path d="M17.7181818,5.33333333 C16.7810167,2.74383258 14.5506662,0.805527329 11.8106484,0.19934068 C9.07063066,-0.406845969 6.20414469,0.403862874 4.21818182,2.34666667 L0,6.22222222 M20,9.77777778 L15.7818182,13.6533333 C13.7958553,15.5961371 10.9293693,16.406846 8.18935156,15.8006593 C5.44933379,15.1944727 3.21898331,13.2561674 2.28181818,10.6666667" id="Shape"></path>
                </g>
                <g id="rotate-ccw-copy" transform="translate(188.000000, 221.000000)">
                    <polyline id="Shape" points="0 0.894736842 0 6.26315789 5.4 6.26315789"></polyline>
                    <path d="M2.259,10.7368421 C3.45780576,14.1195889 6.76245528,16.3063977 10.3641437,16.1003155 C13.9658321,15.8942332 16.9962927,13.3449406 17.7967984,9.84779675 C18.5973042,6.35065289 16.9748753,2.74872165 13.8175509,1.01352549 C10.6602264,-0.721670665 6.72914905,-0.171824336 4.176,2.36210526 L0,6.26315789" id="Shape"></path>
                </g>
                <g id="settings-copy" transform="translate(332.000000, 220.000000)">
                    <circle id="Oval" cx="10" cy="10" r="2.72727273"></circle>
                    <path d="M16.7272727,12.7272727 C16.479685,13.2882637 16.5984856,13.9434666 17.0272727,14.3818182 L17.0818182,14.4363636 C17.423231,14.7773968 17.6150666,15.240165 17.6150666,15.7227273 C17.6150666,16.2052895 17.423231,16.6680577 17.0818182,17.0090909 C16.740785,17.3505037 16.2780168,17.5423394 15.7954545,17.5423394 C15.3128923,17.5423394 14.8501241,17.3505037 14.5090909,17.0090909 L14.4545455,16.9545455 C14.0161939,16.5257583 13.360991,16.4069578 12.8,16.6545455 C12.2504813,16.8900621 11.8932936,17.4294155 11.8909091,18.0272727 L11.8909091,18.1818182 C11.8909091,19.1859723 11.0768814,20 10.0727273,20 C9.06857318,20 8.25454545,19.1859723 8.25454545,18.1818182 L8.25454545,18.1 C8.24014237,17.4842462 7.85079252,16.9398774 7.27272727,16.7272727 C6.7117363,16.479685 6.0565334,16.5984856 5.61818182,17.0272727 L5.56363636,17.0818182 C5.22260317,17.423231 4.759835,17.6150666 4.27727273,17.6150666 C3.79471046,17.6150666 3.33194229,17.423231 2.99090909,17.0818182 C2.64949629,16.740785 2.45766062,16.2780168 2.45766062,15.7954545 C2.45766062,15.3128923 2.64949629,14.8501241 2.99090909,14.5090909 L3.04545455,14.4545455 C3.47424171,14.0161939 3.59304223,13.360991 3.34545455,12.8 C3.10993792,12.2504813 2.57058447,11.8932936 1.97272727,11.8909091 L1.81818182,11.8909091 C0.814027728,11.8909091 2.01858732e-16,11.0768814 0,10.0727273 C-1.00929366e-16,9.06857318 0.814027728,8.25454545 1.81818182,8.25454545 L1.9,8.25454545 C2.5157538,8.24014237 3.06012257,7.85079252 3.27272727,7.27272727 C3.52031496,6.7117363 3.40151443,6.0565334 2.97272727,5.61818182 L2.91818182,5.56363636 C2.57676901,5.22260317 2.38493335,4.759835 2.38493335,4.27727273 C2.38493335,3.79471046 2.57676901,3.33194229 2.91818182,2.99090909 C3.25921501,2.64949629 3.72198319,2.45766062 4.20454545,2.45766062 C4.68710772,2.45766062 5.1498759,2.64949629 5.49090909,2.99090909 L5.54545455,3.04545455 C5.98380612,3.47424171 6.63900903,3.59304223 7.2,3.34545455 L7.27272727,3.34545455 C7.82224601,3.10993792 8.17943372,2.57058447 8.18181818,1.97272727 L8.18181818,1.81818182 C8.18181818,0.814027728 8.99584591,2.01858732e-16 10,0 C11.0041541,0 11.8181818,0.814027728 11.8181818,1.81818182 L11.8181818,1.9 C11.8205663,2.4978572 12.177754,3.03721065 12.7272727,3.27272727 C13.2882637,3.52031496 13.9434666,3.40151443 14.3818182,2.97272727 L14.4363636,2.91818182 C14.7773968,2.57676901 15.240165,2.38493335 15.7227273,2.38493335 C16.2052895,2.38493335 16.6680577,2.57676901 17.0090909,2.91818182 C17.3505037,3.25921501 17.5423394,3.72198319 17.5423394,4.20454545 C17.5423394,4.68710772 17.3505037,5.1498759 17.0090909,5.49090909 L16.9545455,5.54545455 C16.5257583,5.98380612 16.4069578,6.63900903 16.6545455,7.2 L16.6545455,7.27272727 C16.8900621,7.82224601 17.4294155,8.17943372 18.0272727,8.18181818 L18.1818182,8.18181818 C19.1859723,8.18181818 20,8.99584591 20,10 C20,11.0041541 19.1859723,11.8181818 18.1818182,11.8181818 L18.1,11.8181818 C17.5021428,11.8205663 16.9627893,12.177754 16.7272727,12.7272727 Z" id="Shape"></path>
                </g>
                <g id="shield-off-copy" transform="translate(332.000000, 173.000000)">
                    <path d="M16.9909091,11.8181818 C17.1737047,11.2292675 17.2686654,10.6166181 17.2727273,10 L17.2727273,3.63636364 L10,0.909090909 L7.12727273,1.98181818" id="Shape"></path>
                    <path d="M3.39090909,3.39090909 L2.72727273,3.63636364 L2.72727273,10 C2.72727273,15.4545455 10,19.0909091 10,19.0909091 C11.924571,18.075394 13.6542661,16.7273397 15.1090909,15.1090909" id="Shape"></path>
                    <path d="M0,0 L20,20" id="Shape"></path>
                </g>
                <g id="slash-copy" transform="translate(188.000000, 174.000000)">
                    <circle id="Oval" cx="9" cy="9" r="9"></circle>
                    <path d="M2.637,2.637 L15.363,15.363" id="Shape"></path>
                </g>
                <g id="sliders-copy" transform="translate(332.000000, 60.000000)">
                    <path d="M2.72727273,16 L2.72727273,9.77777778" id="Shape"></path>
                    <path d="M2.72727273,6.22222222 L2.72727273,0" id="Shape"></path>
                    <path d="M10,16 L10,8" id="Shape"></path>
                    <path d="M10,4.44444444 L10,0" id="Shape"></path>
                    <path d="M17.2727273,16 L17.2727273,11.5555556" id="Shape"></path>
                    <path d="M17.2727273,8 L17.2727273,0" id="Shape"></path>
                    <path d="M0,9.77777778 L5.45454545,9.77777778" id="Shape"></path>
                    <path d="M7.27272727,4.44444444 L12.7272727,4.44444444" id="Shape"></path>
                    <path d="M14.5454545,11.5555556 L20,11.5555556" id="Shape"></path>
                </g>
                <g id="star-copy" transform="translate(141.000000, 174.000000)">
                    <polygon id="Shape" points="9 0 11.781 5.634 18 6.543 13.5 10.926 14.562 17.118 9 14.193 3.438 17.118 4.5 10.926 0 6.543 6.219 5.634"></polygon>
                </g>
                <g id="thumbs-down-copy" transform="translate(236.000000, 174.000000)">
                    <path d="M7.2,11.7 L7.2,15.3 C7.2,16.7911688 8.40883118,18 9.9,18 L13.5,9.9 L13.5,-0.000116694028 L3.348,4.22296746e-16 C2.45044193,-0.0101469243 1.68258496,0.642531499 1.548,1.53 L0.306,9.63 C0.226749581,10.1521302 0.380792542,10.6827221 0.727327341,11.0812371 C1.07386214,11.4797521 1.57792347,11.7059802 2.106,11.7 L7.2,11.7 Z M13.5,7.7357825e-17 L15.903,7.7357825e-17 C16.9573406,-0.0186462551 17.8586511,0.755010827 18,1.8 L18,8.1 C17.8586511,9.14498917 16.9573406,9.91864626 15.903,9.9 L13.5,9.9 L13.5,7.7357825e-17 Z" id="Shape"></path>
                </g>
                <g id="thumbs-up-copy" transform="translate(284.000000, 174.000000)">
                    <path d="M10.8,6.3 L10.8,2.7 C10.8,1.20883118 9.59116882,3.55271368e-16 8.1,-4.4408921e-16 L4.5,8.1 L4.5,18.0001167 L14.652,18 C15.5495581,18.0101469 16.317415,17.3574685 16.452,16.47 L17.694,8.37 C17.7732504,7.84786979 17.6192075,7.31727792 17.2726727,6.91876291 C16.9261379,6.52024789 16.4220765,6.29401982 15.894,6.3 L10.8,6.3 Z M4.5,18 L1.8,18 C0.80588745,18 0,17.1941125 0,16.2 L0,9.9 C-1.99840144e-16,8.90588745 0.80588745,8.1 1.8,8.1 L4.5,8.1 L4.5,18 Z" id="Shape"></path>
                </g>
                <g id="user-check-copy" transform="translate(0.000000, 60.000000)">
                    <path d="M13.6363636,16 L13.6363636,14.2222222 C13.6363636,12.2585431 12.0083082,10.6666667 10,10.6666667 L3.63636364,10.6666667 C1.62805546,10.6666667 2.01858732e-16,12.2585431 0,14.2222222 L0,16" id="Shape"></path>
                    <ellipse id="Oval" cx="6.81818182" cy="3.55555556" rx="3.63636364" ry="3.55555556"></ellipse>
                    <polyline id="Shape" points="14.5454545 7.11111111 16.3636364 8.88888889 20 5.33333333"></polyline>
                </g>
                <g id="user-minus-copy" transform="translate(49.000000, 60.000000)">
                    <path d="M13.6363636,16 L13.6363636,14.2222222 C13.6363636,12.2585431 12.0083082,10.6666667 10,10.6666667 L3.63636364,10.6666667 C1.62805546,10.6666667 2.01858732e-16,12.2585431 0,14.2222222 L0,16" id="Shape"></path>
                    <ellipse id="Oval" cx="6.81818182" cy="3.55555556" rx="3.63636364" ry="3.55555556"></ellipse>
                    <path d="M20,7.11111111 L14.5454545,7.11111111" id="Shape"></path>
                </g>
                <g id="user-plus-copy" transform="translate(97.000000, 60.000000)">
                    <path d="M13.6363636,16 L13.6363636,14.2222222 C13.6363636,12.2585431 12.0083082,10.6666667 10,10.6666667 L3.63636364,10.6666667 C1.62805546,10.6666667 2.01858732e-16,12.2585431 0,14.2222222 L0,16" id="Shape"></path>
                    <ellipse id="Oval" cx="6.81818182" cy="3.55555556" rx="3.63636364" ry="3.55555556"></ellipse>
                    <path d="M17.2727273,4.44444444 L17.2727273,9.77777778" id="Shape"></path>
                    <path d="M20,7.11111111 L14.5454545,7.11111111" id="Shape"></path>
                </g>
                <g id="user-x-copy" transform="translate(146.000000, 60.000000)">
                    <path d="M13.6363636,16 L13.6363636,14.2222222 C13.6363636,12.2585431 12.0083082,10.6666667 10,10.6666667 L3.63636364,10.6666667 C1.62805546,10.6666667 2.01858732e-16,12.2585431 0,14.2222222 L0,16" id="Shape"></path>
                    <ellipse id="Oval" cx="6.81818182" cy="3.55555556" rx="3.63636364" ry="3.55555556"></ellipse>
                    <path d="M15.4545455,4.44444444 L20,8.88888889" id="Shape"></path>
                    <path d="M20,4.44444444 L15.4545455,8.88888889" id="Shape"></path>
                </g>
                <g id="user-copy" transform="translate(246.000000, 3.000000)">
                    <path d="M14,16 L14,14.2222222 C14,12.2585431 12.4329966,10.6666667 10.5,10.6666667 L3.5,10.6666667 C1.56700338,10.6666667 0,12.2585431 0,14.2222222 L0,16" id="Shape"></path>
                    <ellipse id="Oval" cx="7" cy="3.55555556" rx="3.5" ry="3.55555556"></ellipse>
                </g>
                <g id="users-copy" transform="translate(194.000000, 60.000000)">
                    <path d="M14.5454545,16 L14.5454545,14.2222222 C14.5454545,12.2585431 12.9173991,10.6666667 10.9090909,10.6666667 L3.63636364,10.6666667 C1.62805546,10.6666667 2.01858732e-16,12.2585431 0,14.2222222 L0,16" id="Shape"></path>
                    <ellipse id="Oval" cx="7.27272727" cy="3.55555556" rx="3.63636364" ry="3.55555556"></ellipse>
                    <path d="M20,16 L20,14.2222222 C19.9987639,12.6018824 18.8772716,11.1873068 17.2727273,10.7822222" id="Shape"></path>
                    <path d="M13.6363636,0.115555556 C15.2453771,0.518373145 16.3707666,1.93599213 16.3707666,3.56 C16.3707666,5.18400787 15.2453771,6.60162686 13.6363636,7.00444444" id="Shape"></path>
                </g>
                <g id="x-copy" transform="translate(203.000000, 119.000000)">
                    <path d="M11,0 L0,11" id="Shape"></path>
                    <path d="M0,0 L11,11" id="Shape"></path>
                </g>
                <g id="arrow-up-right-copy" transform="translate(343.000000, 120.000000)">
                    <path d="M0,9 L9,0" id="Shape"></path>
                    <polyline id="Shape" points="0 0 9 0 9 9"></polyline>
                </g>
                <g id="send-copy" transform="translate(147.000000, 2.000000)">
                    <path d="M18,0 L8.1,9.9" id="Shape"></path>
                    <polygon id="Shape" points="18 0 11.7 18 8.1 9.9 0 6.3"></polygon>
                </g>
            </g>
            <g id="Group-27" transform="translate(36.000000, 366.000000)">
                <g id="Group-20">
                    <g id="Group-9">
                        <g id="Group-19">
                            <ellipse id="Oval-5" fill="#000000" cx="24.8283753" cy="24.8629442" rx="24.8283753" ry="24.8629442"></ellipse>
                            <path d="M15.7998752,21.8115828 L24.8283753,14.6917397 L33.8568754,21.8115828 L33.8568754,32.9999077 C33.8568754,34.1233879 32.9586093,35.0341486 31.850542,35.0341486 L17.8062085,35.0341486 C16.6981412,35.0341486 15.7998752,34.1233879 15.7998752,32.9999077 L15.7998752,21.8115828 Z" id="Shape" stroke="#FFFFFF" stroke-width="2.04218182" stroke-linecap="round" stroke-linejoin="round"></path>
                            <polyline id="Shape" stroke="#FFFFFF" stroke-width="2.04218182" stroke-linecap="round" stroke-linejoin="round" points="21.8188753 35.0341486 21.8188753 24.8629442 27.8378753 24.8629442 27.8378753 35.0341486"></polyline>
                            <ellipse id="Oval-6" stroke="#FFFFFF" stroke-width="4.8" fill="#91DC7B" stroke-linecap="square" cx="43.2494279" cy="48.1218274" rx="16.816476" ry="16.8365482"></ellipse>
                            <rect id="Rectangle-path" stroke="#FFFFFF" stroke-width="1.3824" stroke-linecap="round" stroke-linejoin="round" x="37.6430206" y="46.5979695" width="12.01373" height="7.94010152" rx="1.3824"></rect>
                            <path d="M40.3127384,46.5979695 L40.3127384,43.7106599 C40.3127384,41.7173885 41.8068301,40.1015228 43.6498856,40.1015228 C45.4929411,40.1015228 46.9870328,41.7173885 46.9870328,43.7106599 L46.9870328,46.5979695" id="Shape" stroke="#FFFFFF" stroke-width="1.3824" stroke-linecap="round" stroke-linejoin="round"></path>
                        </g>
                        <g id="Group-10" transform="translate(15.799875, 14.691740)"></g>
                    </g>
                    <g id="lock-copy-2" transform="translate(37.643021, 40.101523)"></g>
                </g>
                <g id="Group-18" transform="translate(97.711670, 0.000000)">
                    <g id="Group-9-Copy">
                        <ellipse id="Oval-5" fill="#000000" cx="24.8283753" cy="24.8629442" rx="24.8283753" ry="24.8629442"></ellipse>
                        <g id="Group-10" transform="translate(15.799875, 14.691740)" stroke="#FFFFFF" stroke-linecap="round" stroke-linejoin="round" stroke-width="2.04218182">
                            <path d="M0,7.1198431 L9.0285001,0 L18.0570002,7.1198431 L18.0570002,18.308168 C18.0570002,19.4316482 17.1587342,20.3424089 16.0506669,20.3424089 L2.00633336,20.3424089 C0.898266041,20.3424089 0,19.4316482 0,18.308168 L0,7.1198431 Z" id="Shape"></path>
                            <polyline id="Shape" points="6.01900007 20.3424089 6.01900007 10.1712044 12.0380001 10.1712044 12.0380001 20.3424089"></polyline>
                        </g>
                    </g>
                    <ellipse id="Oval-6-Copy" stroke="#FFFFFF" stroke-width="4.8" fill="#ED174C" stroke-linecap="square" cx="43.2494279" cy="48.1218274" rx="16.816476" ry="16.8365482"></ellipse>
                    <g id="lock-copy-3" transform="translate(37.643021, 40.101523)" stroke="#FFFFFF" stroke-linecap="round" stroke-linejoin="round" stroke-width="1.3824">
                        <rect id="Rectangle-path" x="0" y="6.4964467" width="12.01373" height="7.94010152" rx="1.3824"></rect>
                        <path d="M2.66971777,6.4964467 L2.66971777,3.60913706 C2.66971777,1.6158657 4.16380947,1.20873418e-15 6.00686499,8.8817842e-16 C7.8499205,2.4706689e-16 9.3440122,1.6158657 9.3440122,3.60913706 L9.3440122,6.4964467" id="Shape"></path>
                    </g>
                    <polygon id="Rectangle-4" fill="#ED174C" points="38.4439359 40.1015228 43.2494279 42.5076142 42.4485126 45.715736 39.2448513 45.715736"></polygon>
                </g>
                <g id="Group-25" transform="translate(97.711670, 95.441624)">
                    <ellipse id="Oval-5" fill="#000000" cx="24.8283753" cy="24.8629442" rx="24.8283753" ry="24.8629442"></ellipse>
                    <g id="credit-card" transform="translate(15.217391, 17.644670)" stroke="#FFFFFF" stroke-linecap="round" stroke-linejoin="round" stroke-width="1.81706637">
                        <rect id="Rectangle-path" x="0" y="0" width="20.0228833" height="14.4365482" rx="1.81706637"></rect>
                        <path d="M0,5.41370558 L20.0228833,5.41370558" id="Shape"></path>
                    </g>
                    <path d="M15.2173913,23.0583756 L35.2402746,23.0583756" id="Shape" stroke="#FFFFFF" stroke-width="1.81706637" stroke-linecap="round" stroke-linejoin="round"></path>
                    <ellipse id="Oval-6-Copy" stroke="#FFFFFF" stroke-width="4.8" fill="#ED174C" stroke-linecap="square" cx="43.2494279" cy="48.1218274" rx="16.816476" ry="16.8365482"></ellipse>
                    <g id="lock-copy-3" transform="translate(37.643021, 40.101523)" stroke="#FFFFFF" stroke-linecap="round" stroke-linejoin="round" stroke-width="1.3824">
                        <rect id="Rectangle-path" x="0" y="6.4964467" width="12.01373" height="7.94010152" rx="1.3824"></rect>
                        <path d="M2.66971777,6.4964467 L2.66971777,3.60913706 C2.66971777,1.6158657 4.16380947,1.20873418e-15 6.00686499,8.8817842e-16 C7.8499205,2.4706689e-16 9.3440122,1.6158657 9.3440122,3.60913706 L9.3440122,6.4964467" id="Shape"></path>
                    </g>
                    <polygon id="Rectangle-4" fill="#ED174C" points="38.4439359 40.1015228 43.2494279 42.5076142 42.4485126 45.715736 39.2448513 45.715736"></polygon>
                </g>
                <g id="Group-26" transform="translate(0.000000, 95.441624)">
                    <g id="Group-20-Copy-2">
                        <g id="Group-9">
                            <g id="Group-19">
                                <ellipse id="Oval-5" fill="#000000" cx="24.8283753" cy="24.8629442" rx="24.8283753" ry="24.8629442"></ellipse>
                                <ellipse id="Oval-6" stroke="#FFFFFF" stroke-width="4.8" fill="#91DC7B" stroke-linecap="square" cx="43.2494279" cy="48.1218274" rx="16.816476" ry="16.8365482"></ellipse>
                                <rect id="Rectangle-path" stroke="#FFFFFF" stroke-width="1.3824" stroke-linecap="round" stroke-linejoin="round" x="37.6430206" y="46.5979695" width="12.01373" height="7.94010152" rx="1.3824"></rect>
                                <path d="M40.3127384,46.5979695 L40.3127384,43.7106599 C40.3127384,41.7173885 41.8068301,40.1015228 43.6498856,40.1015228 C45.4929411,40.1015228 46.9870328,41.7173885 46.9870328,43.7106599 L46.9870328,46.5979695" id="Shape" stroke="#FFFFFF" stroke-width="1.3824" stroke-linecap="round" stroke-linejoin="round"></path>
                            </g>
                            <g id="Group-10" transform="translate(15.799875, 14.691740)"></g>
                        </g>
                        <g id="lock-copy-2" transform="translate(37.643021, 40.101523)"></g>
                    </g>
                    <g id="credit-card" transform="translate(15.217391, 17.644670)"></g>
                    <rect id="Rectangle-path" stroke="#FFFFFF" stroke-width="1.81706637" stroke-linecap="round" stroke-linejoin="round" x="15.2173913" y="17.6446701" width="20.0228833" height="14.4365482" rx="1.81706637"></rect>
                    <path d="M15.2173913,23.0583756 L35.2402746,23.0583756" id="Shape" stroke="#FFFFFF" stroke-width="1.81706637" stroke-linecap="round" stroke-linejoin="round"></path>
                </g>
                <g id="Group-15" transform="translate(292.334096, 0.000000)">
                    <g id="Group-9-Copy-3" fill="#000000">
                        <ellipse id="Oval-5" cx="24.8283753" cy="24.8629442" rx="24.8283753" ry="24.8629442"></ellipse>
                    </g>
                    <g id="user-copy-2" transform="translate(21.624714, 18.446701)"></g>
                    <ellipse id="Oval-6-Copy-3" stroke="#FFFFFF" stroke-width="4.8" fill="#ED174C" stroke-linecap="square" cx="43.2494279" cy="48.1218274" rx="16.816476" ry="16.8365482"></ellipse>
                    <g id="lock-copy-5" transform="translate(37.643021, 40.101523)" stroke="#FFFFFF" stroke-linecap="round" stroke-linejoin="round" stroke-width="1.3824">
                        <rect id="Rectangle-path" x="0" y="6.4964467" width="12.01373" height="7.94010152" rx="1.3824"></rect>
                        <path d="M2.66971777,6.4964467 L2.66971777,3.60913706 C2.66971777,1.6158657 4.16380947,1.20873418e-15 6.00686499,8.8817842e-16 C7.8499205,2.4706689e-16 9.3440122,1.6158657 9.3440122,3.60913706 L9.3440122,6.4964467" id="Shape"></path>
                    </g>
                    <polygon id="Rectangle-4-Copy" fill="#ED174C" points="38.4439359 40.1015228 43.2494279 42.5076142 42.4485126 45.715736 39.2448513 45.715736"></polygon>
                    <g id="Group-12" transform="translate(16.018307, 15.238579)" stroke="#FFFFFF" stroke-linecap="round" stroke-linejoin="round" stroke-width="2.25">
                        <path d="M17.6201373,19.248731 L17.6201373,17.1099831 C17.6201373,14.7475874 15.6479363,12.8324873 13.215103,12.8324873 L4.40503432,12.8324873 C1.97220104,12.8324873 0,14.7475874 0,17.1099831 L0,19.248731" id="Shape"></path>
                        <ellipse id="Oval" cx="9.21052632" cy="4.41116751" rx="4.40503432" ry="4.41116751"></ellipse>
                    </g>
                </g>
                <g id="Group-17" transform="translate(194.622426, 0.000000)">
                    <g id="Group-9-Copy-2" fill="#000000">
                        <ellipse id="Oval-5" cx="24.8283753" cy="24.8629442" rx="24.8283753" ry="24.8629442"></ellipse>
                    </g>
                    <ellipse id="Oval-6-Copy-2" stroke="#FFFFFF" stroke-width="4.8" fill="#91DC7B" stroke-linecap="square" cx="43.2494279" cy="48.1218274" rx="16.816476" ry="16.8365482"></ellipse>
                    <g id="lock-copy-4" transform="translate(37.643021, 40.101523)" stroke="#FFFFFF" stroke-linecap="round" stroke-linejoin="round" stroke-width="1.3824">
                        <rect id="Rectangle-path" x="0" y="6.4964467" width="12.01373" height="7.94010152" rx="1.3824"></rect>
                        <path d="M2.66971777,6.4964467 L2.66971777,3.60913706 C2.66971777,1.6158657 4.16380947,1.20873418e-15 6.00686499,8.8817842e-16 C7.8499205,2.4706689e-16 9.3440122,1.6158657 9.3440122,3.60913706 L9.3440122,6.4964467" id="Shape"></path>
                    </g>
                    <g id="Group-11" transform="translate(16.018307, 15.238579)" stroke="#FFFFFF" stroke-linecap="round" stroke-linejoin="round" stroke-width="2.25">
                        <path d="M17.6201373,19.248731 L17.6201373,17.1099831 C17.6201373,14.7475874 15.6479363,12.8324873 13.215103,12.8324873 L4.40503432,12.8324873 C1.97220104,12.8324873 0,14.7475874 0,17.1099831 L0,19.248731" id="Shape"></path>
                        <ellipse id="Oval" cx="9.21052632" cy="4.41116751" rx="4.40503432" ry="4.41116751"></ellipse>
                    </g>
                </g>
                <g id="Group-24" transform="translate(194.622426, 95.441624)">
                    <g id="Group-17-Copy">
                        <g id="Group-9-Copy-2" fill="#000000">
                            <ellipse id="Oval-5" cx="24.8283753" cy="24.8629442" rx="24.8283753" ry="24.8629442"></ellipse>
                        </g>
                        <ellipse id="Oval-6-Copy-2" stroke="#FFFFFF" stroke-width="4.8" fill="#91DC7B" stroke-linecap="square" cx="43.2494279" cy="48.1218274" rx="16.816476" ry="16.8365482"></ellipse>
                        <g id="lock-copy-4" transform="translate(37.643021, 40.101523)" stroke="#FFFFFF" stroke-linecap="round" stroke-linejoin="round" stroke-width="1.3824">
                            <rect id="Rectangle-path" x="0" y="6.4964467" width="12.01373" height="7.94010152" rx="1.3824"></rect>
                            <path d="M2.66971777,6.4964467 L2.66971777,3.60913706 C2.66971777,1.6158657 4.16380947,1.20873418e-15 6.00686499,8.8817842e-16 C7.8499205,2.4706689e-16 9.3440122,1.6158657 9.3440122,3.60913706 L9.3440122,6.4964467" id="Shape"></path>
                        </g>
                    </g>
                    <g id="Group-22" transform="translate(15.217391, 15.238579)" stroke="#FFFFFF" stroke-linecap="round" stroke-linejoin="round" stroke-width="1.84615385">
                        <ellipse id="Oval" cx="9.3707888" cy="9.26374783" rx="3.6988015" ry="3.70549913"></ellipse>
                        <path d="M13.0695903,5.5582487 L13.0695903,10.1901226 C13.0695903,11.7249906 14.3115977,12.969247 15.8436914,12.969247 C17.3757852,12.969247 18.6177926,11.7249906 18.6177926,10.1901226 L18.6177926,9.26374783 C18.617522,4.95879582 15.6570263,1.22134578 11.4722985,0.242985809 C7.28757072,-0.73537416 2.98155452,1.30321642 1.07923719,5.16335674 C-0.823080151,9.02349706 0.179683773,13.687793 3.49952231,16.4211671 C6.81936084,19.1545412 11.581284,19.2365744 14.9929671,16.6191636" id="Shape"></path>
                    </g>
                </g>
                <g id="Group-23" transform="translate(292.334096, 95.441624)">
                    <g id="Group-15-Copy">
                        <g id="Group-9-Copy-3" fill="#000000">
                            <ellipse id="Oval-5" cx="24.8283753" cy="24.8629442" rx="24.8283753" ry="24.8629442"></ellipse>
                        </g>
                        <g id="user-copy-2" transform="translate(21.624714, 18.446701)"></g>
                        <ellipse id="Oval-6-Copy-3" stroke="#FFFFFF" stroke-width="4.8" fill="#ED174C" stroke-linecap="square" cx="43.2494279" cy="48.1218274" rx="16.816476" ry="16.8365482"></ellipse>
                        <g id="lock-copy-5" transform="translate(37.643021, 40.101523)" stroke="#FFFFFF" stroke-linecap="round" stroke-linejoin="round" stroke-width="1.3824">
                            <rect id="Rectangle-path" x="0" y="6.4964467" width="12.01373" height="7.94010152" rx="1.3824"></rect>
                            <path d="M2.66971777,6.4964467 L2.66971777,3.60913706 C2.66971777,1.6158657 4.16380947,1.20873418e-15 6.00686499,8.8817842e-16 C7.8499205,2.4706689e-16 9.3440122,1.6158657 9.3440122,3.60913706 L9.3440122,6.4964467" id="Shape"></path>
                        </g>
                        <polygon id="Rectangle-4-Copy" fill="#ED174C" points="38.4439359 40.1015228 43.2494279 42.5076142 42.4485126 45.715736 39.2448513 45.715736"></polygon>
                    </g>
                    <g id="Group-22" transform="translate(15.217391, 15.238579)" stroke="#FFFFFF" stroke-linecap="round" stroke-linejoin="round" stroke-width="1.84615385">
                        <ellipse id="Oval" cx="9.3707888" cy="9.26374783" rx="3.6988015" ry="3.70549913"></ellipse>
                        <path d="M13.0695903,5.5582487 L13.0695903,10.1901226 C13.0695903,11.7249906 14.3115977,12.969247 15.8436914,12.969247 C17.3757852,12.969247 18.6177926,11.7249906 18.6177926,10.1901226 L18.6177926,9.26374783 C18.617522,4.95879582 15.6570263,1.22134578 11.4722985,0.242985809 C7.28757072,-0.73537416 2.98155452,1.30321642 1.07923719,5.16335674 C-0.823080151,9.02349706 0.179683773,13.687793 3.49952231,16.4211671 C6.81936084,19.1545412 11.581284,19.2365744 14.9929671,16.6191636" id="Shape"></path>
                    </g>
                </g>
            </g>
            <g id="Group-29" transform="translate(39.000000, 629.000000)">
                <rect id="Rectangle-4-Copy-44" fill="#0D68A0" x="0" y="31" width="92" height="92"></rect>
                <rect id="Rectangle-4-Copy-45" fill="#F3AF2B" x="0" y="254" width="92" height="92"></rect>
                <rect id="Rectangle-4-Copy-46" fill="#91DC7B" x="132" y="254" width="92" height="92"></rect>
                <rect id="Rectangle-4-Copy-47" fill="#ED174C" x="260" y="254" width="92" height="92"></rect>
                <rect id="Rectangle-4-Copy-48" fill="#054163" x="132" y="31" width="92" height="92"></rect>
                <rect id="Rectangle-4-Copy-49" fill="#F1F1EE" x="260" y="31" width="92" height="92"></rect>
                <rect id="Rectangle-4-Copy-50" fill="#0D68A0" x="0" y="123" width="92" height="23"></rect>
                <rect id="Rectangle-4-Copy-51" fill="#F3AF2B" x="0" y="346" width="92" height="23"></rect>
                <rect id="Rectangle-4-Copy-52" fill="#91DC7B" x="132" y="346" width="92" height="23"></rect>
                <rect id="Rectangle-4-Copy-53" fill="#ED174C" x="260" y="346" width="92" height="23"></rect>
                <rect id="Rectangle-4-Copy-54" fill="#054163" x="132" y="123" width="92" height="23"></rect>
                <rect id="Rectangle-4-Copy-55" fill="#F1F1EE" x="260" y="123" width="92" height="23"></rect>
                <rect id="Rectangle-4-Copy-56" fill="#0D68A0" x="0" y="146" width="92" height="23"></rect>
                <rect id="Rectangle-4-Copy-57" fill="#F3AF2B" x="0" y="369" width="92" height="23"></rect>
                <rect id="Rectangle-4-Copy-58" fill="#91DC7B" x="132" y="369" width="92" height="23"></rect>
                <rect id="Rectangle-4-Copy-59" fill="#ED174C" x="260" y="369" width="92" height="23"></rect>
                <rect id="Rectangle-4-Copy-60" fill="#054163" x="132" y="146" width="92" height="23"></rect>
                <rect id="Rectangle-4-Copy-61" fill="#F1F1EE" x="260" y="146" width="92" height="23"></rect>
                <rect id="Rectangle-4-Copy-62" fill="#0D68A0" x="0" y="169" width="92" height="23"></rect>
                <rect id="Rectangle-4-Copy-63" fill="#F3AF2B" x="0" y="392" width="92" height="23"></rect>
                <rect id="Rectangle-4-Copy-64" fill="#91DC7B" x="132" y="392" width="92" height="23"></rect>
                <rect id="Rectangle-4-Copy-65" fill="#ED174C" x="260" y="392" width="92" height="23"></rect>
                <rect id="Rectangle-4-Copy-66" fill="#054163" x="132" y="169" width="92" height="23"></rect>
                <rect id="Rectangle-4-Copy-67" fill="#F1F1EE" x="260" y="169" width="92" height="23"></rect>
                <rect id="Rectangle-4-Copy-68" fill="#FFFFFF" style="mix-blend-mode: lighten;" opacity="0.2" x="0" y="123" width="92" height="23"></rect>
                <rect id="Rectangle-4-Copy-69" fill="#FFFFFF" style="mix-blend-mode: lighten;" opacity="0.4" x="0" y="146" width="92" height="23"></rect>
                <rect id="Rectangle-4-Copy-70" fill="#FFFFFF" style="mix-blend-mode: lighten;" opacity="0.6" x="0" y="169" width="92" height="23"></rect>
                <rect id="Rectangle-4-Copy-71" fill="#FFFFFF" style="mix-blend-mode: lighten;" opacity="0.2" x="132" y="123" width="92" height="23"></rect>
                <rect id="Rectangle-4-Copy-72" fill="#FFFFFF" style="mix-blend-mode: lighten;" opacity="0.4" x="132" y="146" width="92" height="23"></rect>
                <rect id="Rectangle-4-Copy-73" fill="#FFFFFF" style="mix-blend-mode: lighten;" opacity="0.6" x="132" y="169" width="92" height="23"></rect>
                <rect id="Rectangle-4-Copy-74" fill="#FFFFFF" style="mix-blend-mode: lighten;" opacity="0.2" x="0" y="346" width="92" height="23"></rect>
                <rect id="Rectangle-4-Copy-75" fill="#FFFFFF" style="mix-blend-mode: lighten;" opacity="0.4" x="0" y="369" width="92" height="23"></rect>
                <rect id="Rectangle-4-Copy-76" fill="#FFFFFF" style="mix-blend-mode: lighten;" opacity="0.6" x="0" y="392" width="92" height="23"></rect>
                <rect id="Rectangle-4-Copy-77" fill="#FFFFFF" style="mix-blend-mode: lighten;" opacity="0.2" x="132" y="346" width="92" height="23"></rect>
                <rect id="Rectangle-4-Copy-78" fill="#FFFFFF" style="mix-blend-mode: lighten;" opacity="0.4" x="132" y="369" width="92" height="23"></rect>
                <rect id="Rectangle-4-Copy-79" fill="#FFFFFF" style="mix-blend-mode: lighten;" opacity="0.6" x="132" y="392" width="92" height="23"></rect>
                <rect id="Rectangle-4-Copy-80" fill="#FFFFFF" style="mix-blend-mode: lighten;" opacity="0.2" x="260" y="346" width="92" height="23"></rect>
                <rect id="Rectangle-4-Copy-81" fill="#FFFFFF" style="mix-blend-mode: lighten;" opacity="0.4" x="260" y="369" width="92" height="23"></rect>
                <rect id="Rectangle-4-Copy-82" fill="#FFFFFF" style="mix-blend-mode: lighten;" opacity="0.6" x="260" y="392" width="92" height="23"></rect>
                <rect id="Rectangle-4-Copy-83" fill="#000000" style="mix-blend-mode: multiply;" opacity="0.1" x="260" y="123" width="92" height="23"></rect>
                <rect id="Rectangle-4-Copy-84" fill="#000000" style="mix-blend-mode: multiply;" opacity="0.2" x="260" y="146" width="92" height="23"></rect>
                <rect id="Rectangle-4-Copy-85" fill="#000000" style="mix-blend-mode: multiply;" opacity="0.4" x="260" y="169" width="92" height="23"></rect>
                <text id="#054163-copy-8" font-family="OpenSans-Extrabold, Open Sans" font-size="14" font-weight="600" letter-spacing="-0.2692308" fill="#4A4A4A">
                    <tspan x="134" y="15">#054163</tspan>
                </text>
                <text id="#91DC7B" font-family="OpenSans-Extrabold, Open Sans" font-size="14" font-weight="600" letter-spacing="-0.2692308" fill="#4A4A4A">
                    <tspan x="134" y="233">#91DC7B</tspan>
                </text>
                <text id="#F1F1EE" font-family="OpenSans-Extrabold, Open Sans" font-size="14" font-weight="600" letter-spacing="-0.2692308" fill="#4A4A4A">
                    <tspan x="260" y="15">#F1F1EE</tspan>
                </text>
                <text id="#ED174C" font-family="OpenSans-Extrabold, Open Sans" font-size="14" font-weight="600" letter-spacing="-0.2692308" fill="#4A4A4A">
                    <tspan x="260" y="233">#ED174C</tspan>
                </text>
                <text id="#0D68A0" font-family="OpenSans-Extrabold, Open Sans" font-size="14" font-weight="600" letter-spacing="-0.2692308" fill="#4A4A4A">
                    <tspan x="0" y="15">#0D68A0</tspan>
                </text>
                <text id="#F3AF2B" font-family="OpenSans-Extrabold, Open Sans" font-size="14" font-weight="600" letter-spacing="-0.2692308" fill="#4A4A4A">
                    <tspan x="0" y="233">#F3AF2B</tspan>
                </text>
            </g>
        </g>
    </g>
</svg>